<?xml version="1.0" standalone="no"?>
<!DOCTYPE svg PUBLIC "-//W3C//DTD SVG 20010904//EN"
 "http://www.w3.org/TR/2001/REC-SVG-20010904/DTD/svg10.dtd">
<svg version="1.0" xmlns="http://www.w3.org/2000/svg"
 width="260.000000pt" height="100.000000pt" viewBox="0 0 260.000000 100.000000"
 preserveAspectRatio="xMidYMid meet">

<g transform="translate(0.000000,100.000000) scale(0.100000,-0.100000)"
fill="#FDFFFC" stroke="none">
<path d="M85 971 c-82 -18 33 -23 443 -21 246 2 806 2 1245 1 l797 -1 0 -448
0 -449 -152 -6 c-191 -9 -607 -9 -1600 0 l-788 6 -1 441 c-1 289 -4 428 -10
402 -5 -21 -8 -226 -7 -455 l3 -416 1285 0 1285 0 3 478 2 477 -1237 -1 c-681
-1 -1251 -4 -1268 -8z"/>
<path d="M92 503 l3 -388 345 0 345 0 0 385 0 385 -348 3 -347 2 2 -387z m235
127 c18 -10 39 -33 48 -50 15 -29 15 -30 -5 -30 -12 0 -32 12 -45 28 -19 22
-32 27 -68 27 -54 0 -84 -23 -93 -72 -8 -45 12 -90 49 -110 39 -20 99 -4 123
32 15 23 54 35 54 18 0 -23 -45 -76 -75 -89 -99 -41 -195 20 -195 124 0 83 56
142 135 142 22 0 54 -9 72 -20z m223 -55 c28 -41 52 -75 54 -75 2 0 25 34 52
75 74 114 84 107 84 -60 0 -128 -1 -135 -20 -135 -19 0 -20 7 -20 93 l0 92
-38 -57 c-49 -77 -69 -77 -116 -1 l-36 57 0 -92 c0 -85 -1 -92 -20 -92 -19 0
-20 7 -20 135 0 164 7 169 80 60z"/>
<path d="M830 633 c0 -5 17 -62 38 -128 l38 -120 34 0 c34 0 36 2 55 60 12 33
23 67 26 75 3 8 17 -18 31 -60 22 -67 27 -75 52 -78 16 -2 32 0 37 5 4 4 26
64 48 131 l39 123 -36 -3 c-36 -3 -37 -4 -57 -70 -11 -38 -22 -68 -26 -68 -3
0 -15 32 -28 70 -21 68 -23 70 -55 70 -31 0 -33 -2 -55 -70 -12 -38 -24 -70
-26 -70 -2 0 -14 32 -26 70 -22 68 -24 70 -56 70 -18 0 -33 -3 -33 -7z"/>
<path d="M1270 510 l0 -130 85 0 85 0 0 30 c0 30 0 30 -56 30 -52 0 -55 1 -52
23 3 19 10 22 51 25 42 3 47 5 47 28 0 22 -4 24 -51 24 -47 0 -50 2 -47 23 3
19 10 22 56 25 48 3 52 5 52 28 0 24 -1 24 -85 24 l-85 0 0 -130z"/>
<path d="M1495 628 c-3 -8 -4 -66 -3 -129 l3 -114 45 -3 c135 -10 211 48 150
113 -18 20 -19 23 -5 35 22 18 19 64 -6 86 -28 25 -176 35 -184 12z m133 -51
c16 -19 0 -37 -34 -40 -25 -2 -29 2 -32 26 -3 24 0 27 26 27 16 0 34 -6 40
-13z m7 -117 c0 -22 -5 -25 -37 -28 -36 -3 -38 -2 -38 28 0 30 2 31 38 28 32
-3 37 -6 37 -28z"/>
<path d="M1760 510 l0 -130 53 1 c127 2 187 45 187 134 0 81 -61 125 -175 125
l-65 0 0 -130z m148 54 c22 -15 30 -66 14 -90 -11 -16 -48 -34 -71 -34 -19 0
-21 6 -21 70 0 70 0 70 28 70 15 0 38 -7 50 -16z"/>
<path d="M2052 513 l3 -128 85 0 85 0 3 28 c3 27 2 27 -52 27 -53 0 -56 1 -56
25 0 23 4 25 45 25 41 0 45 2 45 25 0 23 -4 25 -45 25 -41 0 -45 2 -45 25 0
23 3 25 50 25 47 0 50 2 50 25 0 25 -1 25 -85 25 l-86 0 3 -127z"/>
<path d="M2260 633 c0 -4 21 -62 46 -130 l47 -123 32 0 c31 0 35 4 51 48 10
26 30 81 46 122 15 41 28 78 28 82 0 5 -15 8 -33 8 -31 0 -33 -3 -58 -72 -14
-40 -30 -72 -35 -71 -5 1 -19 33 -32 72 -23 70 -24 71 -58 71 -19 0 -34 -3
-34 -7z"/>
</g>
</svg>
