<?xml version="1.0" standalone="no"?>
<!DOCTYPE svg PUBLIC "-//W3C//DTD SVG 20010904//EN"
 "http://www.w3.org/TR/2001/REC-SVG-20010904/DTD/svg10.dtd">
<svg version="1.0" xmlns="http://www.w3.org/2000/svg"
 width="100.000000pt" height="100.000000pt" viewBox="0 0 220.000000 160.000000"
 preserveAspectRatio="xMidYMid meet">

<g transform="translate(0.000000,170.000000) scale(0.100000,-0.100000)"
fill="#778DA9" stroke="none">
<path d="M355 1629 c-169 -17 -273 -127 -305 -321 -14 -88 -13 -892 1 -960 15
-70 64 -161 108 -200 19 -17 60 -43 91 -57 49 -23 66 -26 170 -26 143 1 209
23 280 95 80 80 93 127 98 373 l4 208 -153 -3 -154 -3 -5 -176 c-4 -156 -7
-179 -24 -198 -35 -39 -96 -23 -115 30 -15 43 -15 859 0 912 7 26 18 41 35 47
38 15 53 12 79 -15 24 -23 25 -28 25 -175 l0 -150 156 0 157 0 -5 178 c-6 193
-18 246 -74 319 -70 91 -212 139 -369 122z"/>
<path d="M912 848 l3 -773 135 0 135 0 4 555 3 555 43 -245 c23 -135 66 -386
96 -558 l53 -313 135 3 136 3 86 535 c47 294 88 544 91 555 3 11 6 -231 7
-537 l1 -558 140 0 140 0 0 775 0 775 -237 -2 -237 -3 -63 -455 c-34 -250 -63
-462 -64 -470 -3 -43 -24 84 -74 450 -30 223 -57 422 -61 443 l-6 37 -234 0
-234 0 2 -772z"/>
</g>
</svg>
