<?xml version="1.0" standalone="no"?>
<!DOCTYPE svg PUBLIC "-//W3C//DTD SVG 20010904//EN"
 "http://www.w3.org/TR/2001/REC-SVG-20010904/DTD/svg10.dtd">
<svg version="1.0" xmlns="http://www.w3.org/2000/svg"
 width="360.000000pt" height="360.000000pt" viewBox="0 0 360.000000 360.000000"
 preserveAspectRatio="xMidYMid meet">

<g transform="translate(0.000000,360.000000) scale(0.100000,-0.100000)"
fill="#2A3D45" stroke="none">
<path d="M1720 3563 c-432 -29 -821 -200 -1122 -492 -271 -262 -440 -575 -515
-956 -25 -126 -25 -461 0 -592 108 -570 458 -1039 964 -1292 221 -110 512
-183 725 -180 l93 1 -125 14 c-249 26 -367 54 -540 126 -269 111 -510 282
-681 483 -93 110 -210 278 -259 376 -83 163 -153 432 -172 657 -18 217 3 389
78 637 48 155 87 240 168 364 170 258 361 445 595 584 99 59 323 161 411 187
254 74 555 85 830 30 137 -28 206 -53 375 -135 314 -153 524 -333 720 -617 80
-116 153 -254 175 -333 10 -33 29 -98 43 -145 30 -102 55 -249 65 -380 9 -126
27 -120 25 8 -3 208 -74 478 -181 687 -220 431 -573 732 -1043 888 -123 42
-233 63 -389 77 -111 9 -144 10 -240 3z"/>
<path d="M2375 2601 c-61 -29 -90 -59 -133 -136 -42 -76 -64 -152 -83 -287 -7
-49 -16 -88 -21 -88 -4 0 -8 12 -8 26 0 14 -9 72 -20 127 -35 176 -109 293
-212 337 -69 30 -181 25 -254 -10 -58 -28 -130 -98 -167 -161 -55 -94 -53
-241 6 -359 35 -71 62 -86 102 -56 20 15 20 15 -1 53 -99 176 -52 429 92 498
67 32 169 13 227 -43 42 -40 106 -173 132 -276 23 -90 43 -257 48 -391 l2 -70
31 -3 c18 -2 36 3 42 11 7 8 30 115 52 239 58 330 84 435 126 497 70 104 176
92 209 -23 17 -57 15 -237 -4 -516 -15 -209 -13 -423 3 -495 22 -93 86 -139
164 -119 49 12 54 34 8 34 -41 0 -71 25 -83 67 -9 30 -10 364 -3 753 6 281 1
312 -60 372 -35 35 -42 38 -96 38 -37 0 -74 -8 -99 -19z"/>
<path d="M883 2585 c-142 -32 -287 -144 -348 -268 -56 -116 -70 -182 -69 -342
0 -156 14 -224 66 -335 40 -84 141 -186 223 -226 54 -26 70 -29 165 -29 148 0
199 8 275 46 73 36 165 115 165 142 0 35 -47 19 -111 -38 -33 -30 -86 -67
-117 -82 -49 -24 -69 -28 -143 -28 -78 0 -91 3 -161 38 -177 87 -271 269 -271
527 0 180 28 279 120 413 55 79 112 119 203 143 104 26 224 4 321 -61 44 -28
67 -31 94 -11 18 13 16 16 -30 45 -104 66 -264 93 -382 66z"/>
<path d="M1714 2412 c-7 -5 -11 -96 -11 -277 0 -346 -23 -549 -83 -750 -12
-38 -24 -83 -27 -99 -5 -27 -5 -28 28 -21 19 4 39 11 45 16 23 18 70 213 100
414 17 109 31 627 20 689 -6 31 -11 36 -34 36 -15 0 -32 -4 -38 -8z"/>
<path d="M3270 1753 c0 -39 0 -39 90 -87 49 -26 92 -51 95 -56 6 -10 0 -12
-121 -40 l-92 -21 -4 -35 c-2 -19 -2 -36 0 -39 2 -2 25 3 50 10 26 7 100 28
165 45 l117 32 0 32 c0 29 -7 35 -133 108 -174 101 -167 99 -167 51z"/>
<path d="M2858 1500 c-24 -14 -41 -72 -29 -101 13 -37 39 -53 79 -52 72 2 108
88 57 138 -25 26 -75 33 -107 15z"/>
<path d="M3161 1276 c-17 -41 -31 -76 -31 -79 0 -6 289 -121 293 -116 2 2 17
38 34 79 28 67 29 76 15 82 -31 12 -38 8 -51 -29 -21 -60 -28 -65 -63 -47 -16
8 -27 21 -25 27 3 7 12 29 21 50 16 37 16 37 -9 47 -15 6 -28 10 -30 10 -2 0
-11 -20 -21 -45 -18 -47 -36 -56 -68 -32 -16 12 -16 15 4 61 11 27 19 50 18
52 -2 1 -15 5 -29 9 -25 6 -28 3 -58 -69z"/>
<path d="M3014 971 c-35 -16 -104 -90 -104 -112 0 -9 235 -189 247 -189 11 0
56 57 76 97 39 74 10 163 -63 201 -53 27 -101 28 -156 3z m137 -80 c32 -33 39
-83 15 -116 -13 -18 -17 -16 -90 38 -42 32 -76 62 -76 67 0 18 45 40 83 40 29
0 46 -7 68 -29z"/>
<path d="M2724 694 c-17 -8 -46 -30 -64 -49 l-33 -34 90 -118 c49 -65 96 -118
102 -118 7 0 35 16 61 35 80 58 100 112 59 164 -16 20 -29 26 -60 26 -37 0
-39 2 -39 30 0 35 -38 80 -67 80 -10 0 -32 -7 -49 -16z m56 -75 c9 -17 8 -25
-6 -41 -18 -20 -19 -19 -41 8 -16 21 -19 31 -11 41 16 20 46 16 58 -8z m105
-98 c7 -24 -3 -49 -27 -62 -15 -8 -23 -6 -38 13 -11 13 -19 28 -20 34 -1 34
74 48 85 15z"/>
<path d="M2405 505 c-27 -13 -58 -24 -67 -24 -14 -1 -12 -11 16 -73 18 -40 46
-107 61 -148 16 -41 30 -77 32 -79 2 -3 148 56 161 65 3 2 -15 42 -23 52 -1 1
-24 -7 -50 -18 -26 -11 -49 -19 -50 -18 -8 10 -25 48 -25 57 0 5 20 17 45 27
45 17 52 27 36 53 -8 12 -15 11 -50 -3 -57 -22 -67 -21 -80 15 -14 39 -11 44
45 65 31 12 43 21 39 31 -3 8 -5 17 -5 19 0 10 -39 0 -85 -21z"/>
<path d="M2163 422 c-35 -4 -35 -3 -54 -127 -6 -44 -15 -84 -19 -88 -4 -5 -24
39 -45 97 -28 80 -42 106 -55 106 -29 0 -36 -20 -50 -128 -12 -94 -22 -123
-37 -109 -3 3 -20 50 -39 104 -32 93 -35 98 -64 101 -35 4 -36 -1 -11 -59 10
-24 35 -88 56 -142 l37 -98 36 3 37 3 15 78 c8 43 20 78 25 78 6 1 20 -25 32
-56 28 -72 39 -85 74 -85 34 0 34 0 53 86 9 38 23 100 31 139 20 91 18 101
-22 97z"/>
</g>
</svg>
